<?xml version="1.0" encoding="UTF-8" standalone="no"?>
<!-- Created with Inkscape (http://www.inkscape.org/) -->

<svg
   width="48"
   height="48"
   viewBox="0 0 12.7 12.7"
   version="1.1"
   id="svg5"
   inkscape:version="1.2 (dc2aedaf03, 2022-05-15)"
   sodipodi:docname="icon.svg"
   inkscape:export-filename="icon.png"
   inkscape:export-xdpi="1024"
   inkscape:export-ydpi="1024"
   xmlns:inkscape="http://www.inkscape.org/namespaces/inkscape"
   xmlns:sodipodi="http://sodipodi.sourceforge.net/DTD/sodipodi-0.dtd"
   xmlns="http://www.w3.org/2000/svg"
   xmlns:svg="http://www.w3.org/2000/svg">
  <sodipodi:namedview
     id="namedview7"
     pagecolor="#ffffff"
     bordercolor="#000000"
     borderopacity="0.25"
     inkscape:showpageshadow="2"
     inkscape:pageopacity="0.0"
     inkscape:pagecheckerboard="0"
     inkscape:deskcolor="#d1d1d1"
     inkscape:document-units="mm"
     showgrid="false"
     inkscape:zoom="13.455443"
     inkscape:cx="13.377486"
     inkscape:cy="23.48492"
     inkscape:window-width="1680"
     inkscape:window-height="987"
     inkscape:window-x="-8"
     inkscape:window-y="-8"
     inkscape:window-maximized="1"
     inkscape:current-layer="layer1" />
  <defs
     id="defs2" />
  <g
     inkscape:label="Capa 1"
     inkscape:groupmode="layer"
     id="layer1">
    <circle
       style="fill:#000000;stroke-width:0.277409;fill-opacity:1"
       id="path61"
       cx="6.3499999"
       cy="6.3499999"
       r="6.3499999" />
    <circle
       style="fill:#ffffff;fill-opacity:1;stroke-width:0.400964"
       id="path901"
       cx="6.3499999"
       cy="6.3499999"
       r="5.0270834" />
    <text
       xml:space="preserve"
       style="font-size:3.175px;fill:#ffffff;fill-opacity:1;stroke-width:0.264583;-inkscape-font-specification:'Google Sans';font-family:'Google Sans';font-weight:normal;font-style:normal;font-stretch:normal;font-variant:normal"
       x="4.3849969"
       y="7.4918561"
       id="text1477"><tspan
         sodipodi:role="line"
         id="tspan1475"
         style="stroke-width:0.264583;-inkscape-font-specification:'Google Sans';font-family:'Google Sans';font-weight:normal;font-style:normal;font-stretch:normal;font-variant:normal"
         x="4.3849969"
         y="7.4918561" /></text>
    <g
       aria-label="Syoker"
       id="text1481"
       style="font-size:2.12564px;font-family:'Google Sans';-inkscape-font-specification:'Google Sans';stroke-width:0.177">
      <path
         d="m 3.4708206,6.9324253 q -0.1998101,0 -0.3528562,-0.1126589 Q 2.9649183,6.7071075 2.9032748,6.5009204 L 3.173231,6.3946384 q 0.031885,0.1211615 0.1084077,0.1934333 0.076523,0.072272 0.1913076,0.072272 0.095654,0 0.1636742,-0.046764 0.068021,-0.04889 0.068021,-0.1339153 0,-0.085026 -0.065895,-0.1381666 Q 3.574977,6.2862308 3.4091771,6.2245872 L 3.3156489,6.190577 Q 3.1689798,6.1395616 3.0648234,6.0354053 2.960667,5.9291233 2.960667,5.7697003 q 0,-0.1190358 0.061644,-0.2168153 0.061644,-0.097779 0.1743025,-0.1530461 0.1126589,-0.057392 0.2550768,-0.057392 0.206187,0 0.3252229,0.097779 0.1190358,0.095654 0.1636742,0.2253178 l -0.2529511,0.106282 q -0.023382,-0.070146 -0.0829,-0.1169102 -0.057392,-0.04889 -0.1487948,-0.04889 -0.093528,0 -0.1551717,0.044639 -0.059518,0.042513 -0.059518,0.1126589 0,0.068021 0.057392,0.1169102 0.057392,0.046764 0.1891819,0.091402 l 0.095654,0.031885 q 0.1976846,0.068021 0.3018409,0.1806794 0.106282,0.1105333 0.106282,0.2912126 0,0.1487948 -0.076523,0.2529512 Q 3.8385563,6.8303946 3.7173949,6.88141 3.598359,6.9324253 3.4708206,6.9324253 Z"
         style="font-weight:bold;-inkscape-font-specification:'Google Sans Bold'"
         id="path1895" />
      <path
         d="M 4.5208872,6.8473997 4.0638746,5.8143387 H 4.380595 l 0.2805845,0.6738279 h 0.017005 L 4.9481408,5.8143387 H 5.2584843 L 4.5889077,7.3575533 H 4.2891925 Z"
         style="font-weight:bold;-inkscape-font-specification:'Google Sans Bold'"
         id="path1897" />
      <path
         d="m 5.8876707,6.9324253 q -0.1679256,0 -0.2997153,-0.074397 -0.1317896,-0.076523 -0.206187,-0.206187 -0.072272,-0.1317897 -0.072272,-0.295464 0,-0.1615486 0.072272,-0.2933383 0.074397,-0.1317897 0.206187,-0.2061871 0.1317897,-0.076523 0.2997153,-0.076523 0.1657999,0 0.2975896,0.076523 0.1317896,0.074397 0.2040614,0.2061871 0.074397,0.1317897 0.074397,0.2933383 0,0.1636743 -0.074397,0.295464 -0.072272,0.129664 -0.2040614,0.206187 -0.1317897,0.074397 -0.2975896,0.074397 z m 0,-0.2572024 q 0.080774,0 0.1487948,-0.038261 0.06802,-0.038261 0.1084076,-0.1105333 0.040387,-0.072272 0.040387,-0.1700512 0,-0.095654 -0.040387,-0.1679255 -0.040387,-0.072272 -0.1084076,-0.1105333 -0.068021,-0.038261 -0.1487948,-0.038261 -0.080774,0 -0.1487948,0.038261 -0.068021,0.038261 -0.1105333,0.1105333 -0.040387,0.072272 -0.040387,0.1679255 0,0.095654 0.040387,0.1700512 0.042513,0.072272 0.1105333,0.1105333 0.068021,0.038261 0.1487948,0.038261 z"
         style="font-weight:bold;-inkscape-font-specification:'Google Sans Bold'"
         id="path1899" />
      <path
         d="m 6.6656564,5.3764569 h 0.2784588 v 0.8289996 h 0.01488 L 7.3479868,5.8143387 h 0.342228 v 0.017005 L 7.2799663,6.2330898 7.7093456,6.88141 v 0.017005 H 7.3798714 L 7.0844074,6.4243974 6.9441152,6.562564 V 6.8984151 H 6.6656564 Z"
         style="font-weight:bold;-inkscape-font-specification:'Google Sans Bold'"
         id="path1901" />
      <path
         d="m 8.3300335,6.9324253 q -0.1615487,0 -0.2912127,-0.074397 -0.129664,-0.074397 -0.2040614,-0.2040614 -0.072272,-0.1317897 -0.072272,-0.2954639 0,-0.1551718 0.072272,-0.2869614 0.072272,-0.1339154 0.1998101,-0.212564 0.1275384,-0.078649 0.2848358,-0.078649 0.1679255,0 0.289087,0.072272 0.1211615,0.072272 0.182805,0.1976845 0.063769,0.1254127 0.063769,0.2784588 0,0.04889 -0.00638,0.093528 H 8.0345695 q 0.021256,0.1296641 0.1020307,0.1976846 0.0829,0.065895 0.1976846,0.065895 0.095654,0 0.1636742,-0.040387 0.070146,-0.042513 0.1105333,-0.1126589 L 8.8338101,6.6433383 Q 8.6680102,6.9324253 8.3300335,6.9324253 Z M 8.5872359,6.2245872 q -0.00425,-0.051015 -0.038261,-0.099905 -0.031885,-0.051015 -0.091403,-0.0829 -0.057392,-0.03401 -0.136041,-0.03401 -0.099905,0 -0.1721768,0.059518 -0.070146,0.057392 -0.1020307,0.1572973 z"
         style="font-weight:bold;-inkscape-font-specification:'Google Sans Bold'"
         id="path1903" />
      <path
         d="M 9.0697563,5.8143387 H 9.33121 v 0.1445435 h 0.017005 q 0.040387,-0.076523 0.1254128,-0.1254127 0.085026,-0.051015 0.1870563,-0.051015 0.074397,0 0.1360409,0.023382 V 6.084295 q -0.057392,-0.021256 -0.097779,-0.029759 -0.038261,-0.010628 -0.0829,-0.010628 -0.1232872,0 -0.1955589,0.089277 -0.072272,0.089277 -0.072272,0.2253179 V 6.8984151 H 9.0697563 Z"
         style="font-weight:bold;-inkscape-font-specification:'Google Sans Bold'"
         id="path1905" />
    </g>
  </g>
</svg>
